<?xml version="1.0" encoding="utf-8"?>
<!-- Generator: Adobe Illustrator 16.0.3, SVG Export Plug-In . SVG Version: 6.00 Build 0)  -->
<!DOCTYPE svg PUBLIC "-//W3C//DTD SVG 1.1//EN" "http://www.w3.org/Graphics/SVG/1.1/DTD/svg11.dtd">
<svg version="1.1" id="Construccion" xmlns="http://www.w3.org/2000/svg" xmlns:xlink="http://www.w3.org/1999/xlink" x="0px"
	 y="0px" width="595.28px" height="841.89px" viewBox="0 0 595.28 841.89" enable-background="new 0 0 595.28 841.89"
	 xml:space="preserve">
<g>
	<polygon fill="#E7E8E7" points="378.209,203.741 378.209,275.603 339.043,314.771 313.766,340.047 313.766,467.873 313.27,468.937 
		297.654,502.411 282.052,468.937 281.544,467.851 281.544,340.035 256.267,314.771 217.099,275.603 217.099,203.741 
		249.321,235.963 249.321,275.603 266.519,292.8 281.544,307.825 281.544,260.567 282.052,259.479 297.654,226.018 313.258,259.479 
		313.766,260.579 313.766,307.814 328.789,292.789 345.987,275.603 345.987,235.963 	"/>
	<g>
		<path fill="#E7E8E7" d="M190.628,522.014v11.349h-17.02v47.651h-11.348v-47.651h-17.019v-11.349H190.628z"/>
		<path fill="#E7E8E7" d="M208.554,581.014h-11.348v-59H225c5.152,0,9.563,1.835,13.237,5.51c3.647,3.649,5.466,8.046,5.466,13.2
			c0,4.465-1.41,8.424-4.233,11.882c-2.769,3.398-6.29,5.548-10.565,6.452l16.484,21.956h-14.182l-16.155-21.541h-6.498V581.014z
			 M208.554,548.121H225c2.027,0,3.769-0.725,5.221-2.176c1.423-1.426,2.138-3.17,2.138-5.222c0-2.029-0.715-3.758-2.138-5.184
			c-1.453-1.449-3.194-2.178-5.221-2.178h-16.446V548.121z"/>
		<path fill="#E7E8E7" d="M251.967,522.014h11.351v59h-11.351V522.014z"/>
		<path fill="#E7E8E7" d="M308.455,557.082v-35.109H319.8v62.491l-38.56-38.56v35.067h-11.344v-62.45L308.455,557.082z"/>
		<path fill="#E7E8E7" d="M326.381,522.014h11.35v59h-11.35V522.014z"/>
		<path fill="#E7E8E7" d="M389.691,522.014v11.349h-17.018v47.651h-11.348v-47.651h-17.023v-11.349H389.691z"/>
		<path fill="#E7E8E7" d="M450.085,522.014l-21.212,36.717v22.283h-11.35V558.73l-21.254-36.717h13.115l13.812,23.848l13.776-23.848
			H450.085z"/>
	</g>
</g>
</svg>
