<?xml version="1.0" encoding="utf-8"?>
<!-- Generator: Adobe Illustrator 16.0.3, SVG Export Plug-In . SVG Version: 6.00 Build 0)  -->
<!DOCTYPE svg PUBLIC "-//W3C//DTD SVG 1.1//EN" "http://www.w3.org/Graphics/SVG/1.1/DTD/svg11.dtd">
<svg version="1.1" id="Construccion" xmlns="http://www.w3.org/2000/svg" xmlns:xlink="http://www.w3.org/1999/xlink" x="0px"
	 y="0px" width="595.28px" height="841.89px" viewBox="0 0 595.28 841.89" enable-background="new 0 0 595.28 841.89"
	 xml:space="preserve">
<g>
	<polygon fill="#E7E8E7" points="378.209,203.741 378.209,275.603 339.043,314.771 313.766,340.047 313.766,467.873 313.27,468.937 
		297.654,502.411 282.052,468.937 281.544,467.851 281.544,340.035 256.267,314.771 217.099,275.603 217.099,203.741 
		249.321,235.963 249.321,275.603 266.519,292.8 281.544,307.825 281.544,260.567 282.052,259.479 297.654,226.018 313.258,259.479 
		313.766,260.579 313.766,307.814 328.789,292.789 345.987,275.603 345.987,235.963 	"/>
	<g>
		<path fill="#E7E8E7" d="M190.628,522.014v11.349h-17.02v47.651h-11.348v-47.651h-17.019v-11.349H190.628z"/>
		<path fill="#E7E8E7" d="M208.554,581.014h-11.348v-59H225c5.152,0,9.563,1.835,13.237,5.51c3.647,3.649,5.466,8.046,5.466,13.2
			c0,4.465-1.41,8.424-4.233,11.882c-2.769,3.398-6.29,5.548-10.565,6.452l16.484,21.956h-14.182l-16.155-21.541h-6.498V581.014z
			 M208.554,548.121H225c2.027,0,3.769-0.725,5.221-2.176c1.423-1.426,2.138-3.17,2.138-5.222c0-2.029-0.715-3.758-2.138-5.184
			c-1.453-1.449-3.194-2.178-5.221-2.178h-16.446V548.121z"/>
		<path fill="#E7E8E7" d="M251.967,522.014h11.351v59h-11.351V522.014z"/>
		<path fill="#E7E8E7" d="M308.455,557.082v-35.109H319.8v62.491l-38.56-38.56v35.067h-11.344v-62.45L308.455,557.082z"/>
		<path fill="#E7E8E7" d="M326.381,522.014h11.35v59h-11.35V522.014z"/>
		<path fill="#E7E8E7" d="M389.691,522.014v11.349h-17.018v47.651h-11.348v-47.651h-17.023v-11.349H389.691z"/>
		<path fill="#E7E8E7" d="M450.085,522.014l-21.212,36.717v22.283h-11.35V558.73l-21.254-36.717h13.115l13.812,23.848l13.776-23.848
			H450.085z"/>
	</g>
	<g>
		<path fill="#E7E8E7" d="M227.568,607.976c1.199,1.198,1.797,2.646,1.797,4.34s-0.599,3.142-1.797,4.341
			c-1.199,1.198-2.645,1.797-4.34,1.797s-3.142-0.599-4.34-1.797c-1.198-1.199-1.797-2.646-1.797-4.341s0.6-3.142,1.797-4.34
			c1.198-1.199,2.646-1.798,4.34-1.798S226.37,606.776,227.568,607.976z M223.229,617.066c1.313,0,2.431-0.465,3.355-1.396
			c0.93-0.929,1.395-2.048,1.395-3.354c0-1.313-0.465-2.432-1.395-3.355c-0.925-0.93-2.043-1.396-3.355-1.396
			c-1.307,0-2.425,0.466-3.356,1.396c-0.93,0.924-1.395,2.043-1.395,3.355c0,1.307,0.465,2.426,1.395,3.354
			C220.803,616.602,221.921,617.066,223.229,617.066z"/>
		<path fill="#E7E8E7" d="M240.16,609.851c0,1.016-0.359,1.883-1.079,2.602c-0.719,0.719-1.584,1.079-2.594,1.079h-4.366v4.922
			h-1.387v-12.275h5.752c1.01,0,1.875,0.359,2.594,1.079C239.801,607.97,240.16,608.835,240.16,609.851z M232.122,612.135h4.366
			c0.628,0,1.167-0.222,1.618-0.667c0.445-0.445,0.667-0.983,0.667-1.617c0-0.628-0.223-1.167-0.667-1.619
			c-0.451-0.444-0.99-0.667-1.618-0.667h-4.366V612.135z"/>
		<path fill="#E7E8E7" d="M250.697,606.178v1.387h-7.781v4.058h5.444v1.387h-5.444v4.058h7.781v1.387h-9.167v-12.275H250.697z"/>
		<path fill="#E7E8E7" d="M253.454,618.453h-1.386v-12.275h5.752c1.01,0,1.875,0.359,2.594,1.079
			c0.719,0.713,1.079,1.578,1.079,2.594c0,0.861-0.274,1.632-0.822,2.312c-0.548,0.679-1.244,1.106-2.089,1.283l-0.916,0.197
			l3.604,4.811h-1.737l-3.689-4.922h-2.389V618.453z M253.454,612.135h4.366c0.628,0,1.167-0.222,1.618-0.667
			c0.445-0.445,0.668-0.983,0.668-1.617c0-0.628-0.223-1.167-0.668-1.619c-0.451-0.444-0.99-0.667-1.618-0.667h-4.366V612.135z"/>
		<path fill="#E7E8E7" d="M272.706,618.453h-1.523l-0.694-1.559h-6.266l-0.694,1.559h-1.523l5.35-11.993L272.706,618.453z
			 M264.839,615.508h5.033l-2.517-5.64L264.839,615.508z"/>
		<path fill="#E7E8E7" d="M279.819,606.178v1.387h-3.887v10.889h-1.395v-10.889h-3.886v-1.387H279.819z"/>
		<path fill="#E7E8E7" d="M281.188,606.178h1.387v12.275h-1.387V606.178z"/>
		<path fill="#E7E8E7" d="M294.645,606.46l-5.35,11.993l-5.35-11.993h1.523l3.827,8.577l3.827-8.577H294.645z"/>
		<path fill="#E7E8E7" d="M305.183,606.178v1.387h-7.782v4.058h5.445v1.387h-5.445v4.058h7.782v1.387h-9.168v-12.275H305.183z"/>
		<path fill="#E7E8E7" d="M316.782,611.622c0.941,0,1.746,0.333,2.414,1.002c0.668,0.667,1.001,1.473,1.001,2.413
			c0,0.942-0.333,1.746-1.001,2.414s-1.473,1.002-2.414,1.002h-5.103v-1.387h5.103c0.56,0,1.035-0.199,1.43-0.6
			c0.398-0.394,0.599-0.871,0.599-1.43s-0.2-1.039-0.599-1.438c-0.395-0.394-0.87-0.591-1.43-0.591h-2.466
			c-0.941,0-1.746-0.334-2.413-1.002c-0.669-0.668-1.003-1.472-1.003-2.414c0-0.94,0.334-1.746,1.003-2.413
			c0.667-0.669,1.472-1.002,2.413-1.002h5.23v1.387h-5.23c-0.559,0-1.036,0.197-1.43,0.591c-0.398,0.398-0.599,0.879-0.599,1.438
			c0,0.56,0.2,1.037,0.599,1.43c0.394,0.4,0.871,0.6,1.43,0.6H316.782z"/>
		<path fill="#E7E8E7" d="M331.779,606.178l-4.408,7.619v4.656h-1.387v-4.656l-4.417-7.619h1.609l3.501,6.043l3.5-6.043H331.779z"/>
		<path fill="#E7E8E7" d="M339.03,611.622c0.94,0,1.746,0.333,2.413,1.002c0.669,0.667,1.002,1.473,1.002,2.413
			c0,0.942-0.333,1.746-1.002,2.414c-0.667,0.668-1.473,1.002-2.413,1.002h-5.103v-1.387h5.103c0.559,0,1.034-0.199,1.43-0.6
			c0.398-0.394,0.599-0.871,0.599-1.43s-0.2-1.039-0.599-1.438c-0.396-0.394-0.871-0.591-1.43-0.591h-2.467
			c-0.941,0-1.745-0.334-2.414-1.002c-0.667-0.668-1.001-1.472-1.001-2.414c0-0.94,0.334-1.746,1.001-2.413
			c0.669-0.669,1.473-1.002,2.414-1.002h5.231v1.387h-5.231c-0.559,0-1.035,0.197-1.429,0.591c-0.399,0.398-0.599,0.879-0.599,1.438
			c0,0.56,0.199,1.037,0.599,1.43c0.394,0.4,0.87,0.6,1.429,0.6H339.03z"/>
		<path fill="#E7E8E7" d="M352.983,606.178v1.387h-3.886v10.889h-1.396v-10.889h-3.886v-1.387H352.983z"/>
		<path fill="#E7E8E7" d="M363.52,606.178v1.387h-7.781v4.058h5.444v1.387h-5.444v4.058h7.781v1.387h-9.167v-12.275H363.52z"/>
		<path fill="#E7E8E7" d="M378.209,618.453h-1.395v-8.612l-5.266,5.273l-5.272-5.273v8.612h-1.387v-11.968l6.659,6.66l6.66-6.66
			V618.453z"/>
	</g>
</g>
</svg>
